<svg width="82" height="89" viewBox="0 0 82 89" fill="none" xmlns="http://www.w3.org/2000/svg">
<path d="M41.6168 51.3872H35.2587C34.8886 51.3888 34.5351 51.2579 34.2862 51.0271C34.0372 50.7964 33.9162 50.4874 33.9532 50.1771L34.5146 44.7864C34.5691 44.2135 35.138 43.7725 35.8201 43.7743H42.1782C42.5483 43.7728 42.9018 43.9037 43.1507 44.1344C43.3997 44.3652 43.5207 44.6742 43.4837 44.9845L42.9223 50.3751C42.8677 50.9481 42.2989 51.3891 41.6168 51.3872ZM42.6358 40.833H36.1595C35.4442 40.833 34.8643 40.3079 34.8643 39.6603L36.6258 21.4485C36.7049 20.8563 37.2623 20.4122 37.9211 20.4165H44.3974C45.1127 20.4165 45.6926 20.9415 45.6926 21.5892L43.8793 39.8127C43.797 40.3828 43.2705 40.8148 42.6358 40.833ZM80.7155 19.5955C81.4048 20.348 81.7415 21.3277 81.65 22.3144L79.1187 49.3702C79.0375 50.2551 78.6175 51.0831 77.9358 51.7022L57.2358 70.4909C56.4968 71.1592 55.5081 71.5319 54.4797 71.5298H32.443L13.0442 88.2407L14.5464 71.5188H4.68133C3.57335 71.5196 2.51593 71.0856 1.76693 70.3227C1.01793 69.5598 0.64621 68.5382 0.742412 67.5068L6.76317 3.31567C6.96976 1.42918 8.67254 -0.00416377 10.7021 9.08782e-06H60.9381C62.0938 -0.000302784 63.1917 0.472228 63.9426 1.29312L80.7155 19.5955ZM65.3738 44.2088L66.9825 27.5089C67.045 26.5188 66.6783 25.5469 65.9653 24.8122L56.5024 14.6C55.7525 13.7931 54.6653 13.3295 53.5216 13.329H23.7135C21.684 13.3248 19.9812 14.7581 19.7746 16.6446L16.226 54.2221C16.1443 55.2502 16.5211 56.2642 17.267 57.0239C18.0129 57.7837 19.0616 58.2216 20.165 58.234H49.4762C50.4931 58.2363 51.4718 57.8721 52.2086 57.2172L64.191 46.5518C64.8753 45.93 65.2955 45.0977 65.3738 44.2088Z" fill="url(#paint0_linear_9_16)"/>
<defs>
<linearGradient id="paint0_linear_9_16" x1="71.301" y1="-5.08802e-07" x2="4.24085" y2="82.6848" gradientUnits="userSpaceOnUse">
<stop stop-color="#CC0000"/>
<stop offset="1" stop-color="#CC0000"/>
</linearGradient>
</defs>
</svg>
